PathFileType  4	(X/Y/Z) C:\Users\antoi\Documents\MyRepositories\mobilecap\ResultsAnalysis
DataRate	CameraRate	NumFrames	NumMarkers	Units	OrigDataRate	OrigDataStartFrame	OrigNumFrames
100.0	100.0	4	55	mm	100.0	586	781
Frame#	Time	r_knee			r_shank_antsup			r_ankle			r_calc			r_5meta			r_toe			L_knee			L_shank_antsup			L_ankle			L_calc			L_5meta			L_toe			r_mknee			r_mankle			L_mknee			L_mankle			r_sh2			r_sh3			r_sh4			L_sh2			L_sh3			r_thigh1			r_thigh2			r_thigh3			r_thigh4			r_thigh5			L_thigh1			L_thigh2			L_thigh3			L_thigh4			r.ASIS			r.PSIS			L.ASIS			L.PSIS			C7			R_Shoulder			L_Shoulder			R_Sternum			L_Sternum			R_humerus			R_elbow_med			R_elbow_lat			R_forearm			R_wrist_radius			R_wrist_ulna			L_humerus			L_elbow_med			L_elbow_lat			L_forearm			L_wrist_radius			L_wrist_ulna			R_HJC			L_HJC			R_HJC_reg			L_HJC_reg			
		X1	Y1	Z1	X2	Y2	Z2	X3	Y3	Z3	X4	Y4	Z4	X5	Y5	Z5	X6	Y6	Z6	X7	Y7	Z7	X8	Y8	Z8	X9	Y9	Z9	X10	Y10	Z10	X11	Y11	Z11	X12	Y12	Z12	X13	Y13	Z13	X14	Y14	Z14	X15	Y15	Z15	X16	Y16	Z16	X17	Y17	Z17	X18	Y18	Z18	X19	Y19	Z19	X20	Y20	Z20	X21	Y21	Z21	X22	Y22	Z22	X23	Y23	Z23	X24	Y24	Z24	X25	Y25	Z25	X26	Y26	Z26	X27	Y27	Z27	X28	Y28	Z28	X29	Y29	Z29	X30	Y30	Z30	X31	Y31	Z31	X32	Y32	Z32	X33	Y33	Z33	X34	Y34	Z34	X35	Y35	Z35	X36	Y36	Z36	X37	Y37	Z37	X38	Y38	Z38	X39	Y39	Z39	X40	Y40	Z40	X41	Y41	Z41	X42	Y42	Z42	X43	Y43	Z43	X44	Y44	Z44	X45	Y45	Z45	X46	Y46	Z46	X47	Y47	Z47	X48	Y48	Z48	X49	Y49	Z49	X50	Y50	Z50	X51	Y51	Z51	X52	Y52	Z52	X53	Y53	Z53	X54	Y54	Z54	X55	Y55	Z55	

586	5.85000000	-260.20161	471.84694	-727.74296	-255.35220	400.26642	-699.81012	-273.45535	92.66854	-719.26761	-339.96905	52.68297	-757.68074	-170.37887	44.07409	-687.11679	-128.07375	62.80723	-743.51394	-282.14491	457.06726	-1059.89581	-263.78458	402.61986	-1071.99061	-283.32048	91.99207	-1080.85187	-348.80799	55.32178	-1032.82961	-191.78605	40.16808	-1116.14895	-139.29687	62.20479	-1063.97342	-254.54291	454.28719	-843.63228	-264.50672	94.32764	-799.94519	-256.73135	443.29148	-955.76040	-264.14777	97.43628	-998.43661	-256.82918	290.49456	-690.35539	-329.51872	400.96156	-715.10550	-336.13061	282.55331	-708.89603	-351.95076	408.31792	-1085.40766	-343.90037	288.04649	-1098.59804	-167.04293	772.84097	-753.85395	-170.53439	661.89311	-738.83793	-221.04898	646.99290	-697.32165	-263.36595	783.81125	-700.36284	-273.93433	668.11554	-698.12908	-174.18686	735.47922	-1065.19103	-189.06004	595.05658	-1063.54021	-290.41585	743.22568	-1092.03128	-294.80355	601.78756	-1083.05433	-171.09844	920.30721	-771.85748	-351.18454	935.56027	-856.15798	-157.95507	901.14967	-1030.49864	-348.54245	923.56960	-963.81232	-334.07184	1388.27496	-905.74905	-269.19623	1348.99544	-746.64883	-260.41007	1347.23879	-1070.93659	-204.16573	1325.37266	-885.49512	-204.84598	1325.11498	-928.19357	-243.47478	1109.66252	-666.70208	-275.43756	1004.63242	-720.36652	-271.01767	1024.92259	-651.86144	-216.78362	918.48122	-619.91499	-188.98892	801.80137	-606.38398	-231.63725	794.87959	-602.06199	-211.86714	1219.35780	-1118.56669	-237.08266	1008.83387	-1071.47537	-240.66308	1015.19257	-1131.79247	-193.71951	924.18147	-1169.54615	-169.82528	799.08536	-1171.31311	-205.67961	788.75985	-1172.62403	-236.90053	844.01412	-798.72671	-224.18893	831.62997	-998.23130	-232.78770	840.61410	-801.44577	-228.60855	821.64743	-971.73227	
587	5.86000000	-260.20337	471.84146	-727.75265	-255.37193	400.24686	-699.81290	-273.50743	92.68309	-719.29231	-339.95978	52.67750	-757.68174	-170.37412	44.06908	-687.11131	-128.07705	62.79324	-743.48887	-282.15650	457.06730	-1059.87335	-263.78337	402.61914	-1071.98463	-283.33129	92.05469	-1080.90791	-348.80257	55.32449	-1032.83143	-191.78581	40.16443	-1116.14456	-139.27276	62.23672	-1063.99553	-254.49291	454.26767	-843.64336	-264.52246	94.30674	-799.93436	-256.72697	443.28002	-955.75869	-264.15770	97.45762	-998.44244	-256.85540	290.52357	-690.35240	-329.51719	400.95776	-715.10035	-336.13891	282.54546	-708.88639	-351.93793	408.34557	-1085.44712	-343.92131	288.03105	-1098.55701	-167.03250	772.82956	-753.80963	-170.52328	661.79364	-738.78677	-221.06481	646.99959	-697.28583	-263.20995	783.86730	-700.32213	-274.01553	668.10916	-698.13979	-174.16885	735.48323	-1065.19780	-189.07975	595.06125	-1063.51026	-290.42643	743.24750	-1092.02966	-294.78591	601.82475	-1083.09950	-171.09327	920.31321	-771.78058	-351.23395	935.58887	-856.01659	-157.95491	901.11529	-1030.48704	-348.55281	923.58281	-963.79249	-334.04303	1388.29244	-905.78418	-269.25022	1348.96701	-746.66742	-260.38032	1347.24282	-1070.93497	-204.15871	1325.34347	-885.48046	-204.83233	1325.09585	-928.18898	-243.50513	1109.66151	-666.72571	-275.44753	1004.65796	-720.40639	-271.06384	1024.91201	-651.89749	-216.81942	918.48225	-619.95608	-189.04915	801.77313	-606.44551	-231.73387	794.82152	-602.14761	-211.85464	1219.34605	-1118.58353	-237.08264	1008.82315	-1071.48702	-240.64401	1015.18598	-1131.80797	-193.71040	924.19689	-1169.62967	-169.82613	799.09512	-1171.41627	-205.65254	788.71981	-1172.55609	-236.91784	844.02478	-798.65837	-224.22459	831.61872	-998.16277	-232.82947	840.58471	-801.39911	-228.59225	821.61039	-971.72839	
588	5.87000000	-260.18477	471.84436	-727.75801	-255.39298	400.26635	-699.83476	-273.50611	92.68884	-719.29369	-339.94764	52.69829	-757.68260	-170.36692	44.06951	-687.11320	-128.06157	62.80726	-743.46672	-282.16224	457.08673	-1059.85174	-263.78361	402.63516	-1071.97222	-283.36012	92.05142	-1080.85036	-348.79957	55.34227	-1032.82220	-191.78053	40.18074	-1116.13913	-139.22590	62.32291	-1064.01957	-254.46622	454.23302	-843.62292	-264.52846	94.30958	-799.92709	-256.73079	443.27440	-955.75417	-264.15711	97.48686	-998.45032	-256.86969	290.54007	-690.35339	-329.46099	400.96709	-715.04687	-336.14064	282.54171	-708.88111	-351.92122	408.40743	-1085.51891	-344.02843	287.83575	-1098.56136	-167.02121	772.83271	-753.80166	-170.48310	661.69538	-738.69797	-221.07847	647.00117	-697.25536	-263.29833	783.92433	-700.17885	-274.03024	668.12994	-698.14832	-174.19660	735.48987	-1065.18255	-189.11990	595.07441	-1063.45047	-290.48023	743.17255	-1091.92751	-294.78492	601.86247	-1083.11301	-171.07441	920.34580	-771.74454	-351.25617	935.59693	-855.92862	-157.96949	901.13704	-1030.48246	-348.59741	923.65720	-963.87000	-333.98456	1388.28113	-905.76043	-269.15569	1349.00696	-746.66755	-260.34895	1347.25266	-1070.92963	-204.14918	1325.33229	-885.45962	-204.81605	1325.10254	-928.17959	-243.53337	1109.66001	-666.75834	-275.45680	1004.69656	-720.47693	-271.10265	1024.91096	-651.94614	-216.86514	918.48147	-620.03213	-189.09221	801.77440	-606.50533	-231.82668	794.73276	-602.32088	-211.83483	1219.34764	-1118.56516	-237.08382	1008.80996	-1071.50817	-240.62279	1015.19077	-1131.82168	-193.69036	924.24817	-1169.75714	-169.80508	799.11086	-1171.50911	-205.62739	788.69969	-1172.52667	-236.93412	844.04925	-798.65241	-224.24971	831.65807	-998.15829	-232.77361	840.49565	-801.40156	-228.57715	821.65098	-971.76633	
589	5.88000000	-260.16944	471.86018	-727.73407	-255.37751	400.26960	-699.83971	-273.46306	92.69288	-719.26580	-339.94432	52.74318	-757.67317	-170.36189	44.07503	-687.11842	-128.03923	62.84905	-743.46801	-282.16039	457.11590	-1059.84843	-263.78339	402.67212	-1071.95699	-283.38978	92.03348	-1080.76335	-348.80019	55.36533	-1032.80604	-191.77778	40.21879	-1116.13452	-139.23284	62.35588	-1064.00675	-254.49621	454.21974	-843.58035	-264.51850	94.34365	-799.93508	-256.75586	443.31565	-955.74909	-264.14455	97.50209	-998.45846	-256.82554	290.49296	-690.37294	-329.36844	400.98244	-714.95833	-336.13703	282.56434	-708.88097	-351.92556	408.43072	-1085.50286	-343.95950	287.97910	-1098.56931	-167.01934	772.88666	-753.78487	-170.48486	661.75772	-738.62049	-221.04821	646.95597	-697.25671	-263.51926	783.95441	-699.94575	-273.94950	668.11470	-698.12447	-174.30096	735.39133	-1065.09716	-189.15008	595.09519	-1063.41069	-290.52115	743.14492	-1091.85555	-294.81640	601.86881	-1083.06173	-171.05742	920.36420	-771.72410	-351.25523	935.59436	-855.92635	-157.96692	901.18137	-1030.46823	-348.62936	923.71412	-963.90019	-333.93648	1388.26823	-905.71787	-269.08944	1348.94943	-746.60396	-260.32423	1347.26342	-1070.92646	-204.12940	1325.34769	-885.43762	-204.79515	1325.12437	-928.18077	-243.54124	1109.65174	-666.76531	-275.46312	1004.71702	-720.52354	-271.14053	1024.91592	-651.98126	-216.92890	918.47469	-620.09186	-189.15423	801.76497	-606.50634	-231.86544	794.67277	-602.43263	-211.81564	1219.35915	-1118.53105	-237.09002	1008.79619	-1071.53018	-240.61071	1015.20333	-1131.82450	-193.66296	924.29741	-1169.84591	-169.78159	799.13005	-1171.55422	-205.61001	788.70924	-1172.54140	-236.93814	844.06233	-798.66205	-224.24700	831.70287	-998.16947	-232.71363	840.44865	-801.39962	-228.56993	821.70194	-971.77884	
